<svg xmlns="http://www.w3.org/2000/svg" viewBox="0 0 32 32" fill="none">
  <circle cx="16" cy="16" r="16" fill="#009BDE"/>
  <path d="M8.5 21.5c0-1.2.4-2.3 1.2-3.2.8-.9 1.9-1.5 3.1-1.7-.2-.5-.3-1-.3-1.6 0-1.1.4-2.1 1.2-2.9.8-.8 1.8-1.2 2.9-1.2.8 0 1.5.2 2.1.6.4-1.3 1.1-2.3 2.2-3.1 1.1-.8 2.3-1.2 3.6-1.2 1.6 0 3 .6 4.1 1.7s1.7 2.5 1.7 4.1c0 .3 0 .7-.1 1 .9.5 1.6 1.2 2.1 2.1.5.9.8 1.8.8 2.9 0 1.5-.5 2.8-1.6 3.8-1 1.1-2.3 1.6-3.8 1.6H12.3c-1.1 0-2-.4-2.8-1.1-.7-.8-1-1.7-1-2.8z" fill="#fff" transform="scale(0.75) translate(2, 2)"/>
</svg>
